<?xml version="1.0" standalone="no"?>
<!DOCTYPE svg PUBLIC "-//W3C//DTD SVG 20010904//EN"
 "http://www.w3.org/TR/2001/REC-SVG-20010904/DTD/svg10.dtd">
<svg version="1.0" xmlns="http://www.w3.org/2000/svg"
 width="1134.000000pt" height="1134.000000pt" viewBox="0 0 1134.000000 1134.000000"
 preserveAspectRatio="xMidYMid meet">
<metadata>
Created by potrace 1.14, written by Peter Selinger 2001-2017
</metadata>
<g transform="translate(0.000000,1134.000000) scale(0.100000,-0.100000)"
fill="#000000" stroke="none">
<path d="M0 5670 l0 -5670 5670 0 5670 0 0 5670 0 5670 -5670 0 -5670 0 0
-5670z m2179 3258 c10 -32 135 -474 346 -1223 59 -209 150 -528 202 -710 119
-415 174 -637 209 -845 25 -146 30 -160 36 -125 4 22 24 124 43 227 60 318
109 499 475 1748 22 74 89 306 150 515 61 209 115 395 121 413 l11 32 759 0
759 0 0 -3280 0 -3280 -611 0 -610 0 4 1703 c2 936 7 1716 10 1732 3 17 8 98
12 180 6 163 8 191 30 465 16 193 138 1423 156 1569 5 46 8 85 5 88 -5 6 -5 7
-66 -232 -28 -110 -87 -337 -130 -505 -77 -298 -128 -496 -405 -1575 -75 -291
-143 -554 -151 -582 l-15 -53 -559 0 -559 0 -10 38 c-248 926 -566 2118 -643
2407 -55 209 -105 385 -110 390 -6 6 -7 1 -4 -15 10 -40 73 -533 121 -940 66
-561 88 -805 100 -1095 4 -82 9 -161 13 -175 3 -14 7 -784 9 -1713 l4 -1687
-610 0 -611 0 0 3280 0 3280 754 0 754 0 11 -32z m6496 13 c167 -19 283 -41
422 -76 815 -212 1370 -809 1498 -1613 30 -188 33 -360 31 -1652 -3 -1364 -3
-1357 -51 -1590 -168 -817 -812 -1414 -1690 -1565 -246 -42 -342 -45 -1521
-45 l-1124 0 0 3281 0 3281 1168 -5 c802 -3 1198 -8 1267 -16z"/>
<path d="M7580 5681 l0 -2071 449 0 c495 0 558 5 699 60 224 86 410 268 491
480 67 172 64 105 65 1480 1 685 -2 1282 -6 1328 -18 207 -89 369 -226 513
-87 92 -185 160 -298 206 -155 63 -179 65 -701 70 l-473 4 0 -2070z"/>
</g>
</svg>
